Coordinates
version=1
nRows=29
nColumns=24
inDegrees=yes

Units are S.I. units (second, meters, Newtons, ...)
Angles are in degrees.

endheader
time	pelvis_tilt	pelvis_list	pelvis_rotation	pelvis_tx	pelvis_ty	pelvis_tz	hip_flexion_r	hip_adduction_r	hip_rotation_r	knee_angle_r	ankle_angle_r	subtalar_angle_r	mtp_angle_r	hip_flexion_l	hip_adduction_l	hip_rotation_l	knee_angle_l	ankle_angle_l	subtalar_angle_l	mtp_angle_l	lumbar_extension	lumbar_bending	lumbar_rotation
      2.40000000	     24.28593294	     -0.90026027	      0.92705315	     -0.55143147	      1.01957808	      0.03112586	    -39.47338857	      2.25411901	    -11.56260118	     -5.38478071	     15.37253578	     -1.39230848	     16.39521775	     -7.80106850	     -1.55635939	    -13.10031102	      0.47177879	     -0.79748871	      4.19316585	     29.08299233	    -40.19530248	      1.42219300	      3.45654955
      2.40500000	     24.30470664	     -0.86847352	      0.77522184	     -0.54589713	      1.01910197	      0.03064111	    -39.61923713	      2.02214539	    -11.52939493	     -5.78652180	     15.44866387	     -1.15437848	     16.46825371	     -7.76298022	     -1.42043659	    -13.07086297	      0.00941362	     -1.10673763	      3.99039136	     29.03972214	    -40.18859137	      1.29167844	      3.50368313
      2.41000000	     24.37867579	     -0.81390255	      0.68199873	     -0.54032676	      1.01868258	      0.03004952	    -39.82400701	      1.79753871	    -11.63507797	     -6.20042301	     15.50743223	     -0.72890276	     16.69571314	     -7.77664751	     -1.27122519	    -12.86827708	     -0.49836915	     -1.46375902	      3.56756241	     28.96814090	    -40.23379390	      1.17486374	      3.47070545
      2.41500000	     24.41318606	     -0.75821106	      0.54723248	     -0.53474117	      1.01826382	      0.02952083	    -39.95734434	      1.54410800	    -11.64067077	     -6.66145910	     15.54915370	     -0.43551304	     16.95616885	     -7.74121693	     -1.12463718	    -12.68431179	     -1.05814499	     -1.88626966	      3.12339840	     28.88179499	    -40.24050778	      1.02698611	      3.46682420
      2.42000000	     24.41376522	     -0.67744954	      0.45841589	     -0.52910045	      1.01782612	      0.02891201	    -40.04929584	      1.29298080	    -11.74550064	     -7.12451894	     15.37887964	     -0.22529324	     19.04054615	     -7.64240639	     -0.96648439	    -12.41614773	     -1.69050417	     -2.33325113	      2.64630879	     28.65248148	    -40.20426168	      0.88345751	      3.42413654
      2.42500000	     24.45671035	     -0.59305123	      0.28549714	     -0.52343259	      1.01750156	      0.02844357	    -40.16936285	      0.99091743	    -11.67617774	     -7.62156527	     15.37155327	     -0.08382648	     19.12592921	     -7.61872282	     -0.79895026	    -12.22964114	     -2.30120978	     -2.88599223	      2.14262271	     28.53986837	    -40.21154564	      0.67743425	      3.45199150
      2.43000000	     24.50471767	     -0.50014664	      0.24863584	     -0.51782102	      1.01716767	      0.02772460	    -40.27809829	      0.75145207	    -11.80611506	     -8.15772675	     15.33829344	      0.25648997	     19.43784012	     -7.55497974	     -0.63671129	    -11.73381413	     -2.98438068	     -3.38458739	      1.28668795	     28.34754598	    -40.22997831	      0.55189163	      3.34480651
      2.43500000	     24.50332497	     -0.38849724	      0.17020536	     -0.51215247	      1.01684987	      0.02706214	    -40.30279418	      0.46578095	    -11.89052824	     -8.74687115	     15.22197356	      0.50203529	     19.93532605	     -7.44298365	     -0.45475888	    -11.29031815	     -3.68058232	     -3.88267322	      0.49222538	     28.09152319	    -40.19384306	      0.37985773	      3.26042304
      2.44000000	     24.48452789	     -0.27647085	      0.07867693	     -0.50646150	      1.01655608	      0.02642012	    -40.28671241	      0.16642577	    -11.94629216	     -9.35894402	     14.95893807	      0.65708524	     22.66933421	     -7.29200217	     -0.28188472	    -10.90995054	     -4.44342359	     -4.21940125	     -0.13795502	     27.02578545	    -40.13748217	      0.19711739	      3.18573649
      2.44500000	     24.51430566	     -0.16345761	     -0.00419807	     -0.50081212	      1.01636995	      0.02576649	    -40.30749660	     -0.12193151	    -11.92887139	     -9.99948372	     14.81269472	      0.74356257	     22.84951070	     -7.20169133	     -0.10363479	    -10.43850083	     -5.18346877	     -4.66904912	     -1.04040561	     26.77014665	    -40.13769876	      0.01455665	      3.12126979
      2.45000000	     24.48228372	     -0.01272435	     -0.02328437	     -0.49511385	      1.01614847	      0.02497536	    -40.23437875	     -0.42019702	    -12.05880536	    -10.70407697	     14.59963274	      0.97403661	     23.34535302	     -7.02015136	      0.10872410	     -9.84916732	     -5.98147066	     -4.95007552	     -1.95082033	     26.35227039	    -40.07126452	     -0.16041483	      2.95888698
      2.45500000	     24.46126126	      0.13000489	     -0.04484487	     -0.48944564	      1.01599700	      0.02417409	    -40.14222037	     -0.71829900	    -12.15932744	    -11.45190752	     14.34580645	      1.15498651	     24.07849098	     -6.84004918	      0.31337027	     -9.26613611	     -6.81016723	     -5.16991218	     -2.86974510	     25.78066271	    -40.02013660	     -0.33031298	      2.82567712
      2.46000000	     24.44490983	      0.29903007	     -0.12623411	     -0.48370378	      1.01592422	      0.02348303	    -40.02457958	     -1.08343873	    -12.24639261	    -12.23078395	     13.81521988	      1.17247590	     27.87744554	     -6.66590040	      0.53905951	     -8.88461229	     -7.68895858	     -5.04410010	     -3.34479150	     23.06674578	    -39.96866953	     -0.56628314	      2.70972369
      2.46500000	     24.40646494	      0.42878300	     -0.11518793	     -0.47807504	      1.01586644	      0.02263889	    -39.84806862	     -1.35591623	    -12.30177775	    -13.07959783	     13.48229975	      1.22396752	     28.13992805	     -6.44442229	      0.72656171	     -8.25243652	     -8.58639895	     -5.02585916	     -4.20744528	     22.58949390	    -39.90717580	     -0.71036296	      2.56984764
      2.47000000	     24.40462532	      0.61713361	     -0.16872988	     -0.47232892	      1.01589937	      0.02183603	    -39.68187750	     -1.74418093	    -12.44778097	    -13.97526502	     12.96678212	      1.34578682	     30.94677379	     -6.28182263	      0.98391476	     -7.79855438	     -9.50087880	     -4.67968247	     -4.72886216	     19.73318511	    -39.87308661	     -0.94263430	      2.43847923
      2.47500000	     24.32499151	      0.74073050	     -0.11575458	     -0.46669859	      1.01589899	      0.02090587	    -39.39014920	     -2.00419371	    -12.53424359	    -14.93854746	     12.49040311	      1.36946527	     31.26225707	     -5.99789671	      1.16496702	     -7.16027613	    -10.45946985	     -4.45662070	     -5.43970466	     19.24126378	    -39.77161580	     -1.05490717	      2.27789709
      2.48000000	     24.24861573	      0.84664827	     -0.15445797	     -0.46107559	      1.01595395	      0.02003346	    -39.02521890	     -2.33460314	    -12.58314906	    -16.02551605	     12.09477664	      1.55974625	     31.69698005	     -5.73640940	      1.34550022	     -6.67667430	    -11.40743926	     -4.20265412	     -6.14382710	     18.84252120	    -39.67430217	     -1.20034090	      2.22795188
      2.48500000	     24.26515490	      1.03788316	     -0.17295551	     -0.45529059	      1.01616443	      0.01915894	    -38.78897877	     -2.72832461	    -12.75011267	    -17.03503844	     11.14054831	      1.44910587	     36.38626140	     -5.61785621	      1.61138244	     -6.23976164	    -12.33153986	     -3.45530035	     -6.36842632	     15.19013189	    -39.65960748	     -1.41578089	      2.07944833
      2.49000000	     24.18143032	      1.12975999	     -0.12576528	     -0.44965799	      1.01628451	      0.01819354	    -38.36583430	     -3.00261654	    -12.84070919	    -18.19060404	     10.53631094	      1.52793758	     36.54365411	     -5.35200114	      1.76857982	     -5.73627587	    -13.29823408	     -2.99307665	     -6.83879342	     14.94076172	    -39.55593839	     -1.50005926	      1.96148709
      2.49500000	     24.18593485	      1.28685896	     -0.15052652	     -0.44391557	      1.01656155	      0.01727700	    -38.02002459	     -3.39886934	    -12.98933672	    -19.34425213	      9.58649223	      1.45661487	     40.20284745	     -5.25340112	      2.01184930	     -5.34957878	    -14.17594276	     -2.19320566	     -7.06124702	     11.72199953	    -39.53418348	     -1.68241743	      1.84873859
      2.50000000	     24.11422035	      1.36779803	     -0.12493449	     -0.43827152	      1.01677564	      0.01630868	    -37.52639885	     -3.70271294	    -13.07472391	    -20.61027977	      8.82250720	      1.51650448	     40.38054740	     -5.05884751	      2.16443182	     -4.96175139	    -15.05765007	     -1.65541114	     -7.34501356	     11.53483771	    -39.44018794	     -1.76647452	      1.76848967
      2.50500000	     24.10700944	      1.50023338	     -0.14912218	     -0.43254448	      1.01711067	      0.01538242	    -37.08403357	     -4.09556135	    -13.19576229	    -21.86810767	      7.72620523	      1.30649353	     43.99484171	     -5.00810218	      2.38487517	     -4.65521169	    -15.83078819	     -0.87672140	     -7.49642589	      9.09615028	    -39.40560164	     -1.92353010	      1.66669020
      2.51000000	     24.04870085	      1.55423162	     -0.17531948	     -0.42692074	      1.01740148	      0.01447470	    -36.51479032	     -4.42837996	    -13.22461867	    -23.23707700	      6.84057411	      1.34421022	     44.21019522	     -4.90728858	      2.51404818	     -4.42192386	    -16.58065349	     -0.29615640	     -7.64976544	      8.94070030	    -39.32564540	     -2.01139176	      1.65544212
      2.51500000	     24.05279923	      1.64454216	     -0.21285537	     -0.42124483	      1.01779945	      0.01358819	    -36.00662389	     -4.80097735	    -13.28530644	    -24.56618920	      5.60205722	      0.97502188	     47.67999979	     -4.94252098	      2.68373154	     -4.24549085	    -17.22206799	      0.48426114	     -7.65902563	      7.05716917	    -39.30481196	     -2.13720369	      1.58020316
      2.52000000	     24.02446496	      1.70370513	     -0.28722687	     -0.41564494	      1.01819031	      0.01276169	    -35.39267394	     -5.17302877	    -13.26364551	    -25.99291254	      4.48786051	      0.69883129	     49.26045709	     -4.97425108	      2.81656086	     -4.17616540	    -17.79886033	      1.19254485	     -7.61752865	      5.85826861	    -39.25336264	     -2.25639609	      1.57307509
      2.52500000	     23.97939847	      1.72940738	     -0.39681211	     -0.41012588	      1.01856947	      0.01195624	    -34.70337090	     -5.54085773	    -13.15574247	    -27.48406844	      3.46411887	      0.55766379	     49.51200883	     -5.03073436	      2.92307953	     -4.15236695	    -18.28242363	      1.74985176	     -7.69924044	      5.76737572	    -39.18962456	     -2.36115279	      1.61684236
      2.53000000	     23.98326511	      1.77247373	     -0.48944107	     -0.40456824	      1.01903496	      0.01120995	    -34.07120783	     -5.90438322	    -13.10569942	    -28.91960239	      2.18571415	      0.01976195	     52.09254746	     -5.18962755	      3.02396822	     -4.22546492	    -18.68640558	      2.43118522	     -7.46653639	      4.83852292	    -39.17177968	     -2.47738432	      1.61863929
      2.53500000	     23.94677691	      1.79886004	     -0.65036082	     -0.39913086	      1.01946814	      0.01048527	    -33.31666044	     -6.29488784	    -12.92963702	    -30.45789353	      1.13365975	     -0.34742338	     52.21507787	     -5.35654612	      3.13597593	     -4.31168650	    -18.96785857	      2.88657098	     -7.54038225	      4.78662045	    -39.11799507	     -2.60924366	      1.70199668
      2.54000000	     23.92797502	      1.80310564	     -0.78004691	     -0.39369067	      1.01992808	      0.00986683	    -32.58471635	     -6.62404943	    -12.76859516	    -31.93669169	     -0.05664370	     -0.99798197	     53.84963089	     -5.55662987	      3.18167746	     -4.53396163	    -19.24285576	      3.55333930	     -7.19217622	      4.15753124	    -39.08119188	     -2.71526212	      1.73388848
